# xmcd
#
# Track frame offsets:
# 150
# 18667
# 37205
# 62265
# 80572
# 103717
# 117202
# 153345
# 167095
# 181447
# 205875
#
# Disc length: 2999 seconds
#
# Revision: 4
# Processed by: cddbd v1.5PL3 Copyright (c) Steve Scherf et al.
# Submitted via: Axialis_AX_CDPlayer 2.6
#
DISCID=8f0bb50b
DTITLE=Albert Collins - Efes Pilsen Blues Classics
DYEAR=2002
DGENRE=
TTITLE0=I Ain't Drunk
TTITLE1=If You Love Me Like You Say
TTITLE2=Blue Monday Hangover
TTITLE3=Meltdown
TTITLE4=Master Charge
TTITLE5=Too Tired
TTITLE6=If Trouble Was Money
TTITLE7=Get to Gettin'
TTITLE8=But I Was Cool
TTITLE9=When the Welfare Turns Its Back to You
TTITLE10=A Good Fool is Hard to Find
EXTD=Submited by Emre Gülay
EXTT0=
EXTT1=
EXTT2=
EXTT3=
EXTT4=
EXTT5=
EXTT6=
EXTT7=
EXTT8=
EXTT9=
EXTT10=
PLAYORDER=
